<svg width="250" height="250" viewBox="0 0 250 250" fill="none" xmlns="http://www.w3.org/2000/svg">
<rect width="250" height="250" rx="125" fill="#0B1023"/>
<path d="M84.8837 77.7909C126.744 55.1164 152.326 60.9303 145.93 90.5819C130.467 162.277 64.7075 144.764 93.0233 119.07C124.419 90.5819 121.512 215 154.651 196.396" stroke="#F5E2DB" stroke-width="2" stroke-linecap="round" stroke-dasharray="6 6"/>
<path d="M72.0932 170.233L75.84 130.256L79.7201 105.544L83.6003 80.8319" stroke="#F5E2DB" stroke-width="2" stroke-linecap="round" stroke-dasharray="6 6"/>
<path fill-rule="evenodd" clip-rule="evenodd" d="M88.2827 76.2319C92.7478 70.5253 98.3722 62.2344 98.3722 56.6792C98.3722 47.4675 91.4482 40 82.9071 40C74.3659 40 67.4419 47.4675 67.4419 56.6792C67.4419 62.2344 73.0663 70.5253 77.5314 76.2319C79.8609 79.2092 81.0257 80.6978 82.9071 80.6978C84.7885 80.6978 85.9532 79.2092 88.2827 76.2319ZM82.9071 63.2498C79.7041 63.2498 77.1076 60.6475 77.1076 57.4374C77.1076 54.2272 79.7041 51.6249 82.9071 51.6249C86.11 51.6249 88.7065 54.2272 88.7065 57.4374C88.7065 60.6475 86.11 63.2498 82.9071 63.2498Z" fill="#BE123C"/>
<path d="M72.5795 174.851L65.4729 188.453C64.9864 189.419 63.9782 190.01 62.8972 189.963C61.8161 189.916 60.8631 189.24 60.4623 188.235L58.2016 182.641C58.0439 182.278 57.8145 181.95 57.5272 181.678L53.0439 177.64C52.261 176.908 51.9751 175.787 52.3115 174.769C52.6479 173.751 53.5452 173.022 54.6103 172.9L69.8301 170.924C70.8326 170.78 71.8308 171.212 72.4118 172.042C72.9927 172.872 73.0576 173.958 72.5795 174.851Z" fill="#BE123C"/>
<path fill-rule="evenodd" clip-rule="evenodd" d="M159.26 193.674C163.735 187.967 169.372 179.677 169.372 174.121C169.372 164.91 162.433 157.442 153.872 157.442C145.312 157.442 138.373 164.91 138.373 174.121C138.373 179.677 144.01 187.967 148.485 193.674C150.819 196.651 151.987 198.14 153.872 198.14C155.758 198.14 156.925 196.651 159.26 193.674ZM153.872 180.692C150.662 180.692 148.06 178.09 148.06 174.88C148.06 171.669 150.662 169.067 153.872 169.067C157.083 169.067 159.685 171.669 159.685 174.88C159.685 178.09 157.083 180.692 153.872 180.692Z" fill="#BE123C"/>
</svg>
